    <svg
        width="32"
        height="32"
        viewBox="0 0 64 70"
        fill="none"
        xmlns="http://www.w3.org/2000/svg"
    >
        <path
        d="M45.9619 26.3549C45.9933 26.3773 46.0244 26.4 46.0552 26.4229C46.192 26.5249 46.3939 26.4365 46.3939 26.2658V26.2658V11.9318C46.3939 10.0331 45.6352 8.21213 44.2848 6.86955C42.9343 5.52696 41.1027 4.77271 39.1929 4.77271H30.3776C29.0597 4.77271 27.9913 3.7043 27.9913 2.38635V2.38635L27.9721 2.06499C27.8938 1.49257 27.6093 0.967793 27.1715 0.588045C26.7336 0.208298 26.172 -0.000639164 25.5909 1.46884e-06L25.2645 0.022274C24.6898 0.1007 24.1631 0.383347 23.7819 0.817945C23.4006 1.25254 23.1906 1.80969 23.1906 2.38635V2.38635C23.1888 3.70482 22.1195 4.77271 20.801 4.77271H11.9857C10.0765 4.77355 8.24566 5.52818 6.8959 6.87067C5.54613 8.21316 4.78789 10.0336 4.78789 11.9318V26.2658C4.78789 28.1645 5.54657 29.9854 6.89703 31.328C8.24749 32.6706 10.0791 33.4248 11.9889 33.4248H36.721C36.8295 33.4248 36.9268 33.3577 36.9654 33.2562V33.2562L36.991 33.1735L38.4312 28.7699L38.4472 28.7317C38.7013 28.0151 39.1191 27.3669 39.6678 26.838C40.2165 26.3091 40.8811 25.914 41.6094 25.6836C42.3377 25.4533 43.1098 25.394 43.865 25.5105C44.6202 25.627 45.338 25.916 45.9619 26.3549ZM18.3899 14.3181C18.9245 14.3031 19.4568 14.3948 19.9552 14.5878C20.4536 14.7808 20.908 15.0713 21.2916 15.4419C21.6751 15.8126 21.98 16.256 22.1881 16.7458C22.3963 17.2356 22.5036 17.762 22.5036 18.2938C22.5036 18.8255 22.3963 19.3519 22.1881 19.8418C21.98 20.3316 21.6751 20.775 21.2916 21.1456C20.908 21.5163 20.4536 21.8067 19.9552 21.9997C19.4568 22.1928 18.9245 22.2845 18.3899 22.2694C17.3489 22.2402 16.3604 21.8085 15.6344 21.0661C14.9085 20.3237 14.5024 19.3291 14.5024 18.2938C14.5024 17.2584 14.9085 16.2639 15.6344 15.5215C16.3604 14.7791 17.3489 14.3474 18.3899 14.3181ZM32.7663 14.3181C33.301 14.3031 33.8333 14.3948 34.3317 14.5878C34.8301 14.7808 35.2845 15.0713 35.668 15.4419C36.0516 15.8126 36.3564 16.256 36.5646 16.7458C36.7728 17.2356 36.8801 17.762 36.8801 18.2938C36.8801 18.8255 36.7728 19.3519 36.5646 19.8418C36.3564 20.3316 36.0516 20.775 35.668 21.1456C35.2845 21.5163 34.8301 21.8067 34.3317 21.9997C33.8333 22.1928 33.301 22.2845 32.7663 22.2694C31.7253 22.2402 30.7368 21.8085 30.0109 21.0661C29.285 20.3237 28.8789 19.3291 28.8789 18.2938C28.8789 17.2584 29.285 16.2639 30.0109 15.5215C30.7368 14.7791 31.7253 14.3474 32.7663 14.3181ZM28.9258 38.2994V38.2994C28.9911 38.2781 28.9758 38.1816 28.9071 38.1816H7.20104C5.29121 38.1816 3.45959 38.9359 2.10914 40.2785C0.758678 41.6211 1.96665e-07 43.442 1.96665e-07 45.3407V48.2266C-0.000312686 49.9449 0.372712 51.6431 1.09356 53.2049C1.81441 54.7667 2.86607 56.1553 4.1766 57.2756C9.17893 61.5488 16.3448 63.6392 25.5909 63.6392C31.1093 63.6392 35.8881 62.8952 39.909 61.3869C40.681 61.0973 40.603 59.8044 39.9757 59.2693V59.2693C39.3192 58.7093 38.8219 57.9878 38.5336 57.177L38.5208 57.1388L37.0806 52.732C36.8667 52.091 36.5433 51.4917 36.1262 50.9621C35.837 50.5949 35.4695 50.3001 35.0912 50.0255L35.0352 49.9849C34.686 49.7316 34.3173 49.5063 33.9325 49.3113V49.3113C33.5525 49.1188 33.158 48.9563 32.7527 48.8253L28.929 47.5902L28.8906 47.5743C27.929 47.234 27.097 46.6061 26.5086 45.777C25.9202 44.9478 25.6044 43.9579 25.6044 42.9432C25.6044 41.9285 25.9202 40.9386 26.5086 40.1094C27.097 39.2803 27.929 38.6524 28.8906 38.3121L28.9258 38.2994ZM37.9255 48.1916C38.9245 49.1868 39.6753 50.4007 40.1178 51.7361L41.5516 56.1175C41.6708 56.4563 41.893 56.7499 42.1874 56.9576C42.4819 57.1653 42.834 57.2769 43.1951 57.2769C43.5561 57.2769 43.9082 57.1653 44.2027 56.9576C44.4971 56.7499 44.7193 56.4563 44.8385 56.1175L46.2691 51.7361C46.7146 50.404 47.4669 49.1937 48.4659 48.2016C49.4649 47.2096 50.6831 46.4631 52.0235 46.0216L56.4338 44.5962C56.7709 44.4749 57.0623 44.2533 57.2683 43.9615C57.4742 43.6697 57.5847 43.3219 57.5847 42.9655C57.5847 42.609 57.4742 42.2612 57.2683 41.9694C57.0623 41.6777 56.7709 41.4561 56.4338 41.3348L56.3474 41.3125L51.9371 39.8871C50.5974 39.4443 49.3799 38.6973 48.3811 37.7054C47.3823 36.7135 46.6296 35.5039 46.1827 34.1726L44.7489 29.7912C44.629 29.4535 44.4067 29.1611 44.1127 28.9542C43.8186 28.7474 43.4673 28.6363 43.107 28.6363C42.7468 28.6363 42.3955 28.7474 42.1014 28.9542C41.8074 29.1611 41.5851 29.4535 41.4652 29.7912L40.0314 34.1726L39.993 34.2807C39.545 35.5792 38.8051 36.759 37.8296 37.7304C36.8541 38.7019 35.6686 39.4395 34.3634 39.8871L29.9563 41.3125C29.6192 41.4338 29.3278 41.6554 29.1218 41.9472C28.9159 42.239 28.8054 42.5868 28.8054 42.9432C28.8054 43.2997 28.9159 43.6475 29.1218 43.9392C29.3278 44.231 29.6192 44.4526 29.9563 44.5739L34.3634 45.9993C35.7076 46.4448 36.9269 47.1957 37.9255 48.1916ZM60.8536 60.3429L63.302 61.132L63.3532 61.1447C63.5422 61.2106 63.706 61.3332 63.8219 61.4957C63.9378 61.6581 64 61.8524 64 62.0515C64 62.2507 63.9378 62.4449 63.8219 62.6074C63.706 62.7698 63.5422 62.8925 63.3532 62.9583L60.9016 63.7474C60.1569 63.9938 59.4802 64.4094 58.9252 64.9611C58.3702 65.5129 57.9522 66.1857 57.7044 66.926L56.9106 69.3569C56.8444 69.5449 56.721 69.7077 56.5576 69.8229C56.3942 69.9381 56.1988 70 55.9985 70C55.7982 70 55.6028 69.9381 55.4394 69.8229C55.276 69.7077 55.1526 69.5449 55.0864 69.3569L54.2863 66.926C54.0407 66.1839 53.624 65.5091 53.0694 64.9555C52.5148 64.402 51.8377 63.985 51.0922 63.7379L48.6406 62.9456C48.4516 62.8797 48.2878 62.7571 48.1719 62.5946C48.0561 62.4322 47.9938 62.2379 47.9938 62.0388C47.9938 61.8396 48.0561 61.6454 48.1719 61.483C48.2878 61.3205 48.4516 61.1979 48.6406 61.132L51.0922 60.3429C51.8271 60.0901 52.4934 59.6721 53.0391 59.1213C53.5848 58.5705 53.9952 57.9018 54.2383 57.1675L55.0352 54.7334C55.1014 54.5454 55.2248 54.3826 55.3882 54.2674C55.5516 54.1522 55.747 54.0903 55.9473 54.0903C56.1476 54.0903 56.343 54.1522 56.5064 54.2674C56.6698 54.3826 56.7932 54.5454 56.8594 54.7334L57.6563 57.1643C57.9035 57.905 58.3213 58.5781 58.8764 59.13C59.4315 59.6818 60.1085 60.0972 60.8536 60.3429Z"
        fill="#003B7A"
        />
    </svg>