<svg
width="43"
height="43"
viewBox="0 0 65 65"
fill="none"
xmlns="http://www.w3.org/2000/svg"
>
<path
    d="M24.375 31H22.875V32.5V37.0037L17.3107 31.4393L16.8714 31H16.25H8.12504C5.9743 31 4.20837 29.2341 4.20837 27.0833V13.5417C4.20837 11.3909 5.9743 9.625 8.12504 9.625H29.7917C31.9424 9.625 33.7084 11.3909 33.7084 13.5417V27.0833C33.7084 29.2341 31.9424 31 29.7917 31H24.375ZM42.125 48.75V47.25H40.625H35.2084C33.0576 47.25 31.2917 45.4841 31.2917 43.3333V39.3254C37.377 38.5801 42.125 33.3626 42.125 27.0833V25.875H56.875C59.0258 25.875 60.7917 27.6409 60.7917 29.7917V43.3333C60.7917 45.4841 59.0258 47.25 56.875 47.25H48.75H48.1287L47.6894 47.6893L42.125 53.2537V48.75Z"
    stroke="#003B7A"
    stroke-width="3"
/>
</svg>