                  <svg
                    width="43"
                    height="43"
                    viewBox="0 0 65 65"
                    fill="none"
                    xmlns="http://www.w3.org/2000/svg"
                  >
                    <path
                      d="M32.5 4.33333C16.6667 4.33333 4.33333 16.6667 4.33333 32.5C4.33333 48.3333 16.6667 60.6667 32.5 60.6667C48.3333 60.6667 60.6667 48.3333 60.6667 32.5C60.6667 16.6667 48.3333 4.33333 32.5 4.33333ZM32.5 54.1667C19.5833 54.1667 9.16667 43.75 9.16667 30.8333C9.16667 17.9167 19.5833 7.5 32.5 7.5C45.4167 7.5 55.8333 17.9167 55.8333 30.8333C55.8333 43.75 45.4167 54.1667 32.5 54.1667Z"
                      stroke="#0B1423"
                      stroke-width="3"
                    />
                    <path
                      d="M32.5 16.25V32.5L43.3333 38.75"
                      stroke="#0B1423"
                      stroke-width="3"
                      stroke-linecap="round"
                      stroke-linejoin="round"
                    />
                    <path d="M12 8V12L15 15" stroke="#003B7A" stroke-width="2" stroke-linecap="round" stroke-linejoin="round"/>
                    <path d="M3.05 11C3.27151 9.43001 3.94661 7.95625 5.00824 6.74574C6.06988 5.53523 7.4711 4.63878 9.02887 4.15713C10.5866 3.67547 12.2373 3.62911 13.8191 4.02315C15.4009 4.41719 16.8464 5.23462 17.99 6.38L21 9M1 13L4.01 15.62C5.15362 16.7654 6.59913 17.5828 8.18091 17.9769C9.76269 18.3709 11.4134 18.3245 12.9711 17.8429C14.5289 17.3612 15.9301 16.4648 16.9918 15.2543C18.0534 14.0438 18.7285 12.57 18.95 11" stroke="#003B7A" stroke-width="2" stroke-linecap="round" stroke-linejoin="round"/>
                  </svg>