     <svg
                width="38"
                height="38"
                viewBox="0 0 61 61"
                fill="none"
                xmlns="http://www.w3.org/2000/svg"
              >
                <path
                  d="M60.0495 0.374442C60.7984 0.919085 61.1047 1.64528 60.9686 2.55301L52.2545 54.8387C52.141 55.4968 51.7779 56.0074 51.1652 56.3705C50.8475 56.5521 50.4958 56.6429 50.11 56.6429C49.8603 56.6429 49.588 56.5861 49.293 56.4727L33.8731 50.1752L25.6355 60.2171C25.2271 60.739 24.6711 61 23.9676 61C23.6726 61 23.423 60.9546 23.2187 60.8638C22.7876 60.705 22.4415 60.4383 22.1805 60.0639C21.9196 59.6895 21.7891 59.2753 21.7891 58.8214V46.9414L51.1992 10.8929L14.811 42.38L1.36536 36.8655C0.525722 36.5478 0.0718612 35.9237 0.00378217 34.9933C-0.0416039 34.0856 0.321484 33.4161 1.09305 32.9849L57.7348 0.306362C58.0752 0.102121 58.4383 0 58.8241 0C59.278 0 59.6864 0.124814 60.0495 0.374442Z"
                  fill="#061721"
                />
              </svg>