<svg
width="43"
height="43"
viewBox="0 0 65 65"
fill="none"
xmlns="http://www.w3.org/2000/svg"
>
<path
    d="M32.5 39.5833C36.4167 39.5833 39.5833 36.4167 39.5833 32.5C39.5833 28.5833 36.4167 25.4167 32.5 25.4167C28.5833 25.4167 25.4167 28.5833 25.4167 32.5C25.4167 36.4167 28.5833 39.5833 32.5 39.5833Z"
    stroke="#003B7A"
    stroke-width="3"
/>
<path
    d="M52.0833 32.5C52.0833 31.0833 51.6667 29.6667 51.25 28.4167L56.25 24.5833L54.1667 20.4167L49.1667 24.25C47.9167 23.4167 46.6667 22.75 45.4167 22.3333V16.25H40.8333V22.3333C39.5833 22.75 38.3333 23.4167 37.0833 24.25L32.0833 20.4167L29.9167 24.5833L34.9167 28.4167C34.5 29.6667 34.0833 31.0833 34.0833 32.5C34.0833 33.9167 34.5 35.3333 34.9167 36.5833L29.9167 40.4167L32.0833 44.5833L37.0833 40.75C38.3333 41.5833 39.5833 42.25 40.8333 42.6667V48.75H45.4167V42.6667C46.6667 42.25 47.9167 41.5833 49.1667 40.75L54.1667 44.5833L56.25 40.4167L51.25 36.5833C51.6667 35.3333 52.0833 33.9167 52.0833 32.5Z"
    stroke="#003B7A"
    stroke-width="3"
/>
</svg>