<svg width="72" height="72" viewBox="0 0 72 72" fill="none" xmlns="http://www.w3.org/2000/svg">
<path d="M36 39C43.188 39 49.725 41.082 54.534 44.016C56.934 45.48 58.986 47.208 60.468 49.086C61.926 50.931 63 53.139 63 55.5C63 58.035 61.767 60.033 59.991 61.458C58.311 62.808 56.094 63.702 53.739 64.326C49.005 65.577 42.687 66 36 66C29.313 66 22.995 65.58 18.261 64.326C15.906 63.702 13.689 62.808 12.009 61.458C10.23 60.03 9 58.035 9 55.5C9 53.139 10.074 50.931 11.532 49.083C13.014 47.208 15.063 45.483 17.466 44.013C22.275 41.085 28.815 39 36 39ZM36 6C39.9782 6 43.7936 7.58035 46.6066 10.3934C49.4196 13.2064 51 17.0218 51 21C51 24.9782 49.4196 28.7936 46.6066 31.6066C43.7936 34.4196 39.9782 36 36 36C32.0218 36 28.2064 34.4196 25.3934 31.6066C22.5804 28.7936 21 24.9782 21 21C21 17.0218 22.5804 13.2064 25.3934 10.3934C28.2064 7.58035 32.0218 6 36 6Z" fill="#4DF2D8"/>
</svg>
